<?xml version="1.0" encoding="utf-8"?>
<!-- Generator: Adobe Illustrator 26.5.0, SVG Export Plug-In . SVG Version: 6.00 Build 0)  -->
<svg version="1.1" id="レイヤー_1" xmlns="http://www.w3.org/2000/svg" xmlns:xlink="http://www.w3.org/1999/xlink" x="0px"
	 y="0px" viewBox="0 0 320 120" style="enable-background:new 0 0 320 120;" xml:space="preserve">
<style type="text/css">
	.st0{fill:#D9CB04;}
	.st1{fill:#FFFFFF;}
	.st2{font-family:'KozGoPr6N-Regular-90ms-RKSJ-H';}
	.st3{font-size:13px;}
	.st4{font-family:'CenturyGothic';}
	.st5{font-size:30px;}
</style>
<path class="st0" d="M320.17,60.42c0-33.14-71.63-60-160-60l0,0c-88.37,0-160,26.86-160,60v60c140.44,0,110.22,0,320,0V60.42z"/>
<text transform="matrix(1 0 0 1 57.1747 95.4187)" class="st1 st2 st3">ご予約・お問い合わせもこちらから</text>
<text transform="matrix(1 0 0 1 80.5727 67.3044)" class="st1 st4 st5">0997-77-9270</text>
<path class="st1" d="M60.1,53.21c1.36,4.99,3.85,9.15,7.51,12.68c0.15-0.14,0.28-0.24,0.38-0.35c0.57-0.63,1.29-1.07,2.01-1.49
	c0.53-0.31,1.11-0.32,1.68-0.11c0.24,0.09,0.49,0.18,0.71,0.31c1.28,0.75,2.56,1.5,3.82,2.28c0.38,0.23,0.72,0.54,1.04,0.86
	c0.62,0.62,0.92,1.38,0.93,2.26c0.01,0.62-0.1,1.22-0.27,1.81c-0.15,0.51-0.43,0.93-0.83,1.28c-1.58,1.38-3.37,1.68-5.31,0.95
	c-1.73-0.65-3.31-1.58-4.75-2.74c-1.74-1.41-3.27-3.01-4.63-4.78c-2.81-3.66-5-7.65-6.34-12.07c-0.77-2.52-1.09-5.09-0.85-7.73
	c0.09-1.02,0.37-1.95,0.95-2.8c0.62-0.91,1.47-1.53,2.51-1.88c1.81-0.61,4.21,0.61,4.77,2.43c0.12,0.4,0.21,0.82,0.23,1.23
	c0.08,1.45,0.13,2.89,0.19,4.34c0.01,0.22,0,0.45-0.02,0.68c-0.06,0.79-0.4,1.41-1.12,1.8C61.92,52.6,61.13,53.04,60.1,53.21z"/>
</svg>
