<?xml version="1.0" encoding="utf-8"?>
<!-- Generator: Adobe Illustrator 16.0.3, SVG Export Plug-In . SVG Version: 6.00 Build 0)  -->
<!DOCTYPE svg PUBLIC "-//W3C//DTD SVG 1.1//EN" "http://www.w3.org/Graphics/SVG/1.1/DTD/svg11.dtd">
<svg version="1.1" id="レイヤー_1" xmlns="http://www.w3.org/2000/svg" xmlns:xlink="http://www.w3.org/1999/xlink" x="0px"
	 y="0px" width="320px" height="120px" viewBox="0 0 320 120" enable-background="new 0 0 320 120" xml:space="preserve">
<path fill="#D9CB04" d="M320,60c0-33.137-71.635-60-160-60l0,0C71.635,0,0,26.863,0,60v60c140.444,0,110.223,0,320,0V60z"/>
<text transform="matrix(1 0 0 1 56 93)" fill="#3F4234" font-family="'KozGoPr6N-Regular-90ms-RKSJ-H'" font-size="13">ご予約・お問い合わせもこちらから</text>
<text transform="matrix(1 0 0 1 80.3979 64.8857)" fill="#3F4234" font-family="'CenturyGothic'" font-size="30">0997-77-9270</text>
<path fill="#29ABE2" d="M50.681,53.589c3.137,4.113,7.006,7.035,11.727,8.924c0.09-0.188,0.169-0.323,0.221-0.468
	c0.288-0.802,0.79-1.473,1.305-2.135c0.378-0.488,0.905-0.71,1.513-0.731c0.257-0.01,0.518-0.014,0.772,0.023
	c1.465,0.215,2.932,0.427,4.391,0.674c0.44,0.073,0.874,0.23,1.286,0.404c0.807,0.341,1.371,0.932,1.716,1.743
	c0.243,0.57,0.366,1.168,0.43,1.776c0.056,0.523-0.053,1.024-0.291,1.497c-0.947,1.872-2.493,2.82-4.568,2.879
	c-1.847,0.053-3.659-0.216-5.431-0.754c-2.138-0.648-4.162-1.562-6.085-2.689c-3.98-2.333-7.507-5.204-10.42-8.802
	c-1.659-2.05-2.922-4.309-3.692-6.839c-0.296-0.975-0.389-1.951-0.173-2.953c0.233-1.079,0.786-1.97,1.617-2.682
	c1.448-1.242,4.133-1.014,5.337,0.456c0.263,0.321,0.5,0.678,0.676,1.053c0.62,1.308,1.211,2.632,1.807,3.952
	c0.092,0.205,0.165,0.42,0.234,0.634c0.247,0.758,0.155,1.457-0.354,2.092C52.134,52.345,51.569,53.045,50.681,53.589z"/>
</svg>
